Exact Audio Copy V0.99 prebeta 1 from 25. May 2007

EAC 抓取日志文件从8. 三月 2011, 15:37

群星 / 20世纪中华歌坛名人百集珍藏版

使用驱动器  ：PIONEER DVD-RW  DVR-115   Adapter: 0  ID: 0

读取模式     : 保护
使用精确流   : 是
废除音频缓冲 : 是
使用 C2 指针 : 否

组合读/写偏移校正              : 48
读取 Lead-In 和 Lead-Out       : 否
用静音填充抓取中丢失偏移的采样 : 是
去除首尾静音块                 : 否
已用接口                       : Win NT 及 2000 本地 Win32 接口

所用输出格式 : 内部 WAV 函数
样本格式     : 44.100 Hz;16 Bit;立体声
使用压缩偏移 : 48


被抓轨 CD 的 TOC

     音轨 |   开始   |   长度   | 起始扇区 | 结尾扇区 
    --------------------------------------------------
       1  |  0:00.32 |  1:40.28 |      32  |    7559  
       2  |  1:40.60 |  2:30.67 |    7560  |   18876  
       3  |  4:11.52 |  2:33.00 |   18877  |   30351  
       4  |  6:44.52 |  2:48.73 |   30352  |   43024  
       5  |  9:33.50 |  1:51.22 |   43025  |   51371  
       6  | 11:24.72 |  2:04.00 |   51372  |   60671  
       7  | 13:28.72 |  3:41.58 |   60672  |   77304  
       8  | 17:10.55 |  3:54.10 |   77305  |   94864  
       9  | 21:04.65 |  2:59.67 |   94865  |  108356  
      10  | 24:04.57 |  2:05.30 |  108357  |  117761  
      11  | 26:10.12 |  5:12.00 |  117762  |  141161  
      12  | 31:22.12 |  2:26.50 |  141162  |  152161  
      13  | 33:48.62 |  2:29.03 |  152162  |  163339  
      14  | 36:17.65 |  4:01.60 |  163340  |  181474  
      15  | 40:19.50 |  2:20.72 |  181475  |  192046  
      16  | 42:40.47 |  2:48.35 |  192047  |  204681  
      17  | 45:29.07 |  2:50.53 |  204682  |  217484  
      18  | 48:19.60 |  3:05.30 |  217485  |  231389  
      19  | 51:25.15 |  1:19.47 |  231390  |  237361  
      20  | 52:44.62 |  4:34.58 |  237362  |  257969  


范围状态及错误

已选择范围

     文件名 E:\20世纪中华歌坛名人百集珍藏版-邓玉华、柳石明、单秀荣[lwg188原创]\群星 - 20世纪中华歌坛名人百集珍藏版.wav

     峰值电平 99.8 %
     范围质量 100.0 %
     复制 CRC 9BC3BC59
     复制成功

没有错误发生

状态报告结尾
